<?xml version="1.0" encoding="utf-8"?>
<!-- Generator: Adobe Illustrator 16.0.0, SVG Export Plug-In . SVG Version: 6.00 Build 0)  -->
<!DOCTYPE svg PUBLIC "-//W3C//DTD SVG 1.1//EN" "http://www.w3.org/Graphics/SVG/1.1/DTD/svg11.dtd">
<svg version="1.1" id="name" xmlns="http://www.w3.org/2000/svg" xmlns:xlink="http://www.w3.org/1999/xlink" x="0px" y="0px"
	 width="500px" height="100px" viewBox="0 0 500 100" enable-background="new 0 0 500 100" xml:space="preserve">
<g id="_x2E_events">
	<path fill="#FFFFFF" d="M31.027,31.583v39.489h-4.224V31.583h-16.64V27.68h37.44v3.903H31.027z"/>
	<path fill="#FFFFFF" d="M55.539,47.765c-1.792,2.768-2.688,6.321-2.688,10.665v12.643h-4.224V39.776h4.224v4.288
		c2.986-3.328,7.53-4.992,13.632-4.992v3.904C61.32,42.976,57.672,44.573,55.539,47.765z"/>
	<path fill="#FFFFFF" d="M95.922,71.137v-4.545c-2.987,3.455-7.168,5.184-12.544,5.184c-5.078,0-9.11-1.578-12.096-4.736
		c-2.731-2.984-4.096-6.826-4.096-11.52c0-4.778,1.386-8.661,4.16-11.648c2.986-3.2,7.082-4.8,12.288-4.8
		c5.248,0,9.344,1.664,12.288,4.992v-4.992h4.224v32.065H95.922z M92.698,46.351c-2.149-2.25-5.266-3.375-9.351-3.375
		c-3.788,0-6.767,1.23-8.937,3.692c-2,2.292-3,5.244-3,8.851c0,3.65,1,6.58,3,8.787c2.128,2.377,5.107,3.564,8.937,3.564
		c3.787,0,6.83-1.178,9.128-3.533c2.298-2.355,3.447-5.295,3.447-8.818C95.922,51.656,94.847,48.601,92.698,46.351z"/>
	<path fill="#FFFFFF" d="M133.746,66.977c-2.944,3.156-7.04,4.734-12.288,4.734c-5.035,0-9.088-1.748-12.16-5.248v4.674h-4.224
		V27.68h4.224v15.743c2.901-3.369,6.976-5.056,12.224-5.056s9.344,1.622,12.288,4.864c2.73,3.03,4.096,7.019,4.096,11.967
		C137.906,60.107,136.519,64.031,133.746,66.977z M130.746,45.984c-2.128-2.474-5.129-3.712-9.001-3.712
		c-4.17,0-7.287,1.163-9.351,3.488s-3.096,5.515-3.096,9.568c0,3.627,1.138,6.613,3.415,8.959c2.276,2.348,5.308,3.521,9.096,3.521
		c3.83,0,6.787-1.217,8.873-3.648c2-2.262,3-5.27,3-9.023C133.682,51.295,132.703,48.246,130.746,45.984z"/>
	<path fill="#FFFFFF" d="M163.634,70.111c-2.262,1.195-5.184,1.793-8.768,1.793c-9.814,0-14.72-4.459-14.72-13.377h4.352
		c0,3.395,0.821,5.822,2.464,7.281C148.604,67.27,151.26,68,154.93,68c2.517,0,4.565-0.385,6.144-1.156
		c1.877-0.941,2.816-2.336,2.816-4.178c0-2.27-2.007-3.854-6.02-4.754c-0.299-0.041-2.433-0.359-6.401-0.957
		c-6.653-0.98-9.979-3.844-9.979-8.588c0-3.077,1.322-5.47,3.968-7.18c2.304-1.452,5.077-2.18,8.32-2.18
		c9.472,0,14.229,3.99,14.272,11.969h-4.416c0-2.881-0.747-4.945-2.24-6.193c-1.494-1.247-3.926-1.871-7.296-1.871
		c-2.262,0-4.16,0.43-5.696,1.288c-1.707,1.03-2.56,2.404-2.56,4.12c0,2.232,1.941,3.692,5.824,4.377
		c1.109,0.215,3.37,0.6,6.784,1.158c6.528,1.109,9.792,4.033,9.792,8.768C168.242,65.951,166.706,68.447,163.634,70.111z"/>
	<path fill="#FFFFFF" d="M199.889,67.232c-3.094,3.029-7.264,4.543-12.512,4.543c-5.248,0-9.387-1.514-12.416-4.543
		c-3.03-3.029-4.544-6.955-4.544-11.777c0-4.82,1.536-8.756,4.608-11.807c3.072-3.05,7.232-4.576,12.48-4.576
		s9.397,1.526,12.448,4.576c3.05,3.051,4.576,6.987,4.576,11.807C204.529,60.277,202.982,64.203,199.889,67.232z M196.913,46.382
		c-2.262-2.271-5.419-3.406-9.472-3.406c-4.011,0-7.147,1.146-9.408,3.438c-2.262,2.292-3.392,5.306-3.392,9.041
		c0,3.693,1.141,6.688,3.424,8.979c2.282,2.293,5.408,3.438,9.376,3.438c3.968,0,7.104-1.145,9.408-3.438
		c2.304-2.291,3.456-5.285,3.456-8.979C200.305,51.678,199.174,48.654,196.913,46.382z"/>
	<path fill="#FFFFFF" d="M207.153,71.072V27.68h4.224v43.392H207.153z"/>
	<path fill="#FFFFFF" d="M240.56,71.137v-3.393c-2.688,2.688-6.358,4.031-11.008,4.031c-4.139,0-7.424-0.98-9.856-2.943
		c-2.56-2.09-3.84-5.035-3.84-8.832V39.839h4.224v20.051c0,5.32,3.157,7.98,9.472,7.98c3.669,0,6.442-1.043,8.32-3.129
		c1.792-1.914,2.688-4.596,2.688-8.045V39.839h4.225v31.297H240.56z"/>
	<path fill="#FFFFFF" d="M257.648,44.832v26.241h-4.225V44.832h-6.4v-3.903h6.4v-9.152h4.225v9.152h6.463v3.903H257.648z"/>
	<path fill="#FFFFFF" d="M268.463,56.992c0.553,7.254,4.66,10.879,12.324,10.879c5.959,0,9.898-2.432,11.814-7.295h4.342
		c-1.408,4.395-3.648,7.402-6.721,9.023c-2.73,1.451-5.932,2.176-9.6,2.176c-5.42,0-9.559-1.514-12.416-4.543
		c-2.646-2.816-3.969-6.721-3.969-11.713c0-4.736,1.494-8.661,4.48-11.776c2.986-3.114,7.061-4.672,12.225-4.672
		c5.033,0,9.076,1.376,12.127,4.128s4.576,6.475,4.576,11.167v2.625H268.463z M289.83,46.156c-2.182-2.12-5.154-3.18-8.92-3.18
		c-3.379,0-6.182,0.891-8.404,2.672c-2.225,1.781-3.572,4.304-4.043,7.567h24.576C292.781,50.333,291.713,47.98,289.83,46.156z"/>
</g>
<g id="trabsolute">
	<path fill="#FFFFFF" d="M304.303,71.199c-1.408,0-2.111-0.49-2.111-1.471v-2.625c0-0.98,0.703-1.473,2.111-1.473
		s2.111,0.492,2.111,1.473v2.625C306.414,70.709,305.711,71.199,304.303,71.199z"/>
	<path fill="#FFFFFF" d="M315.439,56.992c0.553,7.254,4.66,10.879,12.322,10.879c5.961,0,9.898-2.432,11.814-7.295h4.342
		c-1.408,4.395-3.648,7.402-6.719,9.023c-2.732,1.451-5.932,2.176-9.602,2.176c-5.418,0-9.557-1.514-12.416-4.543
		c-2.645-2.816-3.967-6.721-3.967-11.713c0-4.736,1.492-8.661,4.48-11.776c2.984-3.114,7.061-4.672,12.223-4.672
		c5.035,0,9.078,1.376,12.129,4.128c3.049,2.752,4.576,6.475,4.576,11.167v2.625H315.439z M336.807,46.156
		c-2.182-2.12-5.156-3.18-8.92-3.18c-3.381,0-6.182,0.891-8.406,2.672s-3.572,4.304-4.041,7.567h24.574
		C339.758,50.333,338.689,47.98,336.807,46.156z"/>
	<path fill="#FFFFFF" d="M362.029,71.072h-3.52l-15.615-31.233h4.865l12.465,25.651l11.564-25.651h4.576L362.029,71.072z"/>
	<path fill="#FFFFFF" d="M379.182,56.992c0.553,7.254,4.66,10.879,12.324,10.879c5.959,0,9.898-2.432,11.814-7.295h4.342
		c-1.408,4.395-3.648,7.402-6.721,9.023c-2.73,1.451-5.932,2.176-9.6,2.176c-5.42,0-9.559-1.514-12.416-4.543
		c-2.646-2.816-3.969-6.721-3.969-11.713c0-4.736,1.494-8.661,4.48-11.776c2.986-3.114,7.061-4.672,12.225-4.672
		c5.033,0,9.076,1.376,12.127,4.128s4.576,6.475,4.576,11.167v2.625H379.182z M400.549,46.156c-2.182-2.12-5.154-3.18-8.92-3.18
		c-3.379,0-6.182,0.891-8.404,2.672c-2.225,1.781-3.572,4.304-4.043,7.567h24.576C403.5,50.333,402.432,47.98,400.549,46.156z"/>
	<path fill="#FFFFFF" d="M435.309,71.072V50.83c0-2.554-0.832-4.501-2.496-5.842s-3.967-2.012-6.912-2.012
		c-3.455,0-6.166,0.979-8.127,2.938c-1.963,1.958-2.943,4.534-2.943,7.727v17.432h-4.225V39.776h4.225v3.328
		c2.602-2.688,6.271-4.032,11.008-4.032c3.881,0,7.061,0.896,9.535,2.688c2.773,2.006,4.16,4.821,4.16,8.447v20.865H435.309z"/>
	<path fill="#FFFFFF" d="M452.396,44.832v26.241h-4.223V44.832h-6.4v-3.903h6.4v-9.152h4.223v9.152h6.465v3.903H452.396z"/>
	<path fill="#FFFFFF" d="M483.5,70.111c-2.262,1.195-5.184,1.793-8.768,1.793c-9.814,0-14.721-4.459-14.721-13.377h4.352
		c0,3.395,0.822,5.822,2.465,7.281c1.643,1.461,4.297,2.191,7.969,2.191c2.516,0,4.564-0.385,6.143-1.156
		c1.877-0.941,2.816-2.336,2.816-4.178c0-2.27-2.008-3.854-6.02-4.754c-0.299-0.041-2.434-0.359-6.402-0.957
		c-6.652-0.98-9.979-3.844-9.979-8.588c0-3.077,1.322-5.47,3.969-7.18c2.305-1.452,5.076-2.18,8.32-2.18
		c9.471,0,14.229,3.99,14.271,11.969H483.5c0-2.881-0.746-4.945-2.24-6.193c-1.494-1.247-3.926-1.871-7.295-1.871
		c-2.264,0-4.16,0.43-5.697,1.288c-1.707,1.03-2.561,2.404-2.561,4.12c0,2.232,1.941,3.692,5.824,4.377
		c1.109,0.215,3.371,0.6,6.785,1.158c6.527,1.109,9.791,4.033,9.791,8.768C488.107,65.951,486.572,68.447,483.5,70.111z"/>
</g>
</svg>
