<?xml version="1.0" encoding="utf-8"?>
<!-- Generator: Adobe Illustrator 16.0.0, SVG Export Plug-In . SVG Version: 6.00 Build 0)  -->
<!DOCTYPE svg PUBLIC "-//W3C//DTD SVG 1.1//EN" "http://www.w3.org/Graphics/SVG/1.1/DTD/svg11.dtd">
<svg version="1.1" id="logo" xmlns="http://www.w3.org/2000/svg" xmlns:xlink="http://www.w3.org/1999/xlink" x="0px" y="0px"
	 width="200px" height="200px" viewBox="0 0 200 200" enable-background="new 0 0 200 200" xml:space="preserve">
<path id="vinyl" fill="#C1272D" d="M99.999,190C50.374,190,10,149.624,10,100c0-49.626,40.374-90,89.999-90
	C149.625,10,190,50.374,190,100C190,149.624,149.625,190,99.999,190z"/>
<path id="turntable" fill="#FFFFFF" d="M100,0C44.771,0,0,44.771,0,100c0,55.228,44.771,100,100,100c55.229,0,100-44.772,100-100
	C200,44.771,155.229,0,100,0z M99.999,190C50.374,190,10,149.624,10,100c0-49.626,40.374-90,89.999-90
	C149.625,10,190,50.374,190,100C190,149.624,149.625,190,99.999,190z"/>
<path id="smile" fill="#FFFFFF" d="M100,174.987c-8.284,0-15-6.716-15-15s6.716-15,15-15c24.813,0,45.001-20.188,45.001-45.001
	c0-8.284,6.716-15,15-15s15,6.716,15,15C175.001,141.342,141.355,174.987,100,174.987z"/>
<path id="centerdot" fill="#FFFFFF" d="M100,107.5c-4.135,0-7.5-3.363-7.5-7.5c0-4.135,3.365-7.5,7.5-7.5c4.137,0,7.5,3.365,7.5,7.5
	C107.5,104.137,104.137,107.5,100,107.5z"/>
</svg>
