<?xml version="1.0" encoding="utf-8"?>
<!-- Generator: Adobe Illustrator 16.0.0, SVG Export Plug-In . SVG Version: 6.00 Build 0)  -->
<!DOCTYPE svg PUBLIC "-//W3C//DTD SVG 1.1//EN" "http://www.w3.org/Graphics/SVG/1.1/DTD/svg11.dtd">
<svg version="1.1" id="Layer_1" xmlns="http://www.w3.org/2000/svg" xmlns:xlink="http://www.w3.org/1999/xlink" x="0px" y="0px"
	 width="226.77px" height="226.77px" viewBox="0 0 226.77 226.77" enable-background="new 0 0 226.77 226.77" xml:space="preserve">
<g>
	<path d="M96.026,111.759c5.308,0,9.625-4.391,9.625-9.788c0-5.397-4.317-9.788-9.625-9.788c-5.307,0-9.624,4.391-9.624,9.788
		C86.402,107.367,90.719,111.759,96.026,111.759z"/>
	<path id="smile" d="M114.498,193.06c14.545,0,26.377-12.034,26.377-26.826s-11.833-26.826-26.377-26.826
		c-14.545,0-26.377,12.034-26.377,26.826C88.123,181.026,99.955,193.06,114.498,193.06z M127.758,166.23
		c0-2.483,1.979-4.494,4.419-4.494s4.42,2.013,4.42,4.494c0,12.391-9.914,22.474-22.099,22.474c-2.441,0-4.42-2.012-4.42-4.494
		c0-2.48,1.98-4.494,4.42-4.494C121.811,179.713,127.758,173.664,127.758,166.23z M114.498,161.128c2.769,0,5.021,2.29,5.021,5.105
		c0,2.816-2.252,5.106-5.021,5.106s-5.021-2.289-5.021-5.106C109.478,163.419,111.73,161.128,114.498,161.128z"/>
	<path d="M132.971,111.759c5.307,0,9.624-4.391,9.624-9.788c0-5.397-4.317-9.788-9.624-9.788c-5.306,0-9.624,4.391-9.624,9.788
		C123.347,107.367,127.665,111.759,132.971,111.759z"/>
	<path d="M0,0v226.77h226.77V0H0z M159.914,209.491c0,1.297-1.034,2.349-2.311,2.349H71.393c-1.275,0-2.309-1.052-2.309-2.349
		V74.659c0-1.297,1.034-2.349,2.309-2.349h86.211c1.276,0,2.311,1.052,2.311,2.349V209.491z"/>
	<path d="M73.702,207.144h81.594V77.007H73.702V207.144z M132.971,87.486c7.854,0,14.242,6.498,14.242,14.484
		c0,7.987-6.388,14.484-14.242,14.484c-7.853,0-14.241-6.497-14.241-14.484C118.73,93.983,125.118,87.486,132.971,87.486z
		 M145.493,166.234c0,17.383-13.904,31.523-30.995,31.523s-30.995-14.141-30.995-31.523c0-17.381,13.904-31.521,30.995-31.521
		C131.59,134.712,145.493,148.853,145.493,166.234z M96.026,87.486c7.853,0,14.243,6.498,14.243,14.484
		c0,7.987-6.389,14.484-14.243,14.484c-7.853,0-14.242-6.497-14.242-14.484C81.784,93.983,88.173,87.486,96.026,87.486z"/>
</g>
</svg>
