<?xml version="1.0" encoding="utf-8"?>
<!-- Generator: Adobe Illustrator 16.0.0, SVG Export Plug-In . SVG Version: 6.00 Build 0)  -->
<!DOCTYPE svg PUBLIC "-//W3C//DTD SVG 1.1//EN" "http://www.w3.org/Graphics/SVG/1.1/DTD/svg11.dtd">
<svg version="1.1" id="Layer_1" xmlns="http://www.w3.org/2000/svg" xmlns:xlink="http://www.w3.org/1999/xlink" x="0px" y="0px"
	 width="756px" height="226.77px" viewBox="-210.115 0 756 226.77" enable-background="new -210.115 0 756 226.77"
	 xml:space="preserve">
<g>
	<path d="M150.526,111.759c5.309,0,9.625-4.391,9.625-9.788c0-5.397-4.316-9.788-9.625-9.788c-5.307,0-9.623,4.391-9.623,9.788
		C140.903,107.367,145.219,111.759,150.526,111.759z"/>
	<path id="smile" d="M168.998,193.06c14.545,0,26.377-12.034,26.377-26.826s-11.833-26.826-26.377-26.826
		c-14.545,0-26.377,12.034-26.377,26.826C142.623,181.026,154.455,193.06,168.998,193.06z M182.258,166.23
		c0-2.483,1.979-4.494,4.419-4.494s4.42,2.013,4.42,4.494c0,12.391-9.914,22.474-22.099,22.474c-2.441,0-4.42-2.012-4.42-4.494
		c0-2.48,1.98-4.494,4.42-4.494C176.311,179.713,182.258,173.664,182.258,166.23z M168.998,161.128c2.769,0,5.021,2.29,5.021,5.105
		c0,2.816-2.252,5.106-5.021,5.106s-5.021-2.289-5.021-5.106C163.979,163.419,166.23,161.128,168.998,161.128z"/>
	<path d="M187.471,111.759c5.307,0,9.624-4.391,9.624-9.788c0-5.397-4.317-9.788-9.624-9.788c-5.306,0-9.624,4.391-9.624,9.788
		C177.847,107.367,182.165,111.759,187.471,111.759z"/>
	<path d="M-210.115,0v226.77h756V0H-210.115z M214.414,209.491c0,1.297-1.034,2.349-2.311,2.349h-86.211
		c-1.275,0-2.309-1.052-2.309-2.349V74.659c0-1.297,1.033-2.349,2.309-2.349h86.211c1.276,0,2.311,1.052,2.311,2.349V209.491z"/>
	<path d="M128.201,207.144h81.595V77.007h-81.595V207.144z M187.471,87.486c7.854,0,14.242,6.498,14.242,14.484
		c0,7.987-6.388,14.484-14.242,14.484c-7.853,0-14.241-6.497-14.241-14.484C173.23,93.983,179.618,87.486,187.471,87.486z
		 M199.993,166.234c0,17.383-13.904,31.523-30.995,31.523s-30.995-14.141-30.995-31.523c0-17.381,13.904-31.521,30.995-31.521
		C186.09,134.712,199.993,148.853,199.993,166.234z M150.526,87.486c7.854,0,14.243,6.498,14.243,14.484
		c0,7.987-6.389,14.484-14.243,14.484c-7.853,0-14.242-6.497-14.242-14.484C136.283,93.983,142.673,87.486,150.526,87.486z"/>
</g>
</svg>
