<?xml version="1.0" encoding="utf-8"?>
<!-- Generator: Adobe Illustrator 16.0.0, SVG Export Plug-In . SVG Version: 6.00 Build 0)  -->
<!DOCTYPE svg PUBLIC "-//W3C//DTD SVG 1.1//EN" "http://www.w3.org/Graphics/SVG/1.1/DTD/svg11.dtd">
<svg version="1.1" id="Layer_1" xmlns="http://www.w3.org/2000/svg" xmlns:xlink="http://www.w3.org/1999/xlink" x="0px" y="0px"
	 width="226.77px" height="226.77px" viewBox="0 0 226.77 226.77" enable-background="new 0 0 226.77 226.77" xml:space="preserve">
<rect x="-10.582" y="-5.88" width="245.522" height="241.418"/>
<g>
	<path id="turntable" fill="none" stroke="#FFFFFF" stroke-width="5" stroke-miterlimit="10" d="M113.384,202.151
		c-17.125,0-31.058-13.934-31.058-31.06c0-17.125,13.933-31.058,31.058-31.058c17.125,0,31.059,13.933,31.059,31.058
		C144.443,188.218,130.51,202.151,113.384,202.151z"/>
	<path id="smile" fill="#FFFFFF" d="M113.384,195.013c-2.643,0-4.785-2.142-4.785-4.784s2.143-4.785,4.785-4.785
		c7.917,0,14.356-6.44,14.356-14.355c0-2.643,2.143-4.785,4.785-4.785s4.785,2.143,4.785,4.785
		C137.311,184.279,126.576,195.013,113.384,195.013z"/>
	<path id="centerdot" fill="#FFFFFF" stroke="#FFFFFF" stroke-width="5" stroke-miterlimit="10" d="M113.384,174.028
		c-1.619,0-2.936-1.317-2.936-2.937c0-1.617,1.316-2.936,2.936-2.936c1.62,0,2.936,1.318,2.936,2.936
		C116.32,172.711,115.004,174.028,113.384,174.028z"/>
</g>
<path fill="none" stroke="#FFFFFF" stroke-width="5" stroke-miterlimit="10" d="M133.385,115.598c-7.124,0-12.92-5.796-12.92-12.92
	c0-7.125,5.796-12.92,12.92-12.92s12.92,5.796,12.92,12.92C146.305,109.801,140.509,115.598,133.385,115.598z"/>
<path fill="none" stroke="#FFFFFF" stroke-width="5" stroke-miterlimit="10" d="M93.385,115.598c-7.124,0-12.92-5.796-12.92-12.92
	c0-7.125,5.796-12.92,12.92-12.92s12.92,5.796,12.92,12.92C106.305,109.801,100.509,115.598,93.385,115.598z"/>
<rect x="66.714" y="73.602" fill="none" stroke="#FFFFFF" stroke-width="5" stroke-linejoin="round" stroke-miterlimit="10" width="93.341" height="143.542"/>
</svg>
