<?xml version="1.0" encoding="utf-8"?>
<!-- Generator: Adobe Illustrator 16.0.0, SVG Export Plug-In . SVG Version: 6.00 Build 0)  -->
<!DOCTYPE svg PUBLIC "-//W3C//DTD SVG 1.1//EN" "http://www.w3.org/Graphics/SVG/1.1/DTD/svg11.dtd">
<svg version="1.1" id="Layer_1" xmlns="http://www.w3.org/2000/svg" xmlns:xlink="http://www.w3.org/1999/xlink" x="0px" y="0px"
	 width="226.77px" height="226.77px" viewBox="0 0 226.77 226.77" enable-background="new 0 0 226.77 226.77" xml:space="preserve">
<g>
	<path fill="#231F20" d="M113.384,199.651c15.748,0,28.559-12.812,28.559-28.56c0-15.747-12.812-28.558-28.559-28.558
		c-15.747,0-28.558,12.811-28.558,28.558C84.827,186.84,97.638,199.651,113.384,199.651z M127.74,171.088
		c0-2.643,2.143-4.785,4.785-4.785s4.785,2.143,4.785,4.785c0,13.191-10.734,23.925-23.926,23.925c-2.643,0-4.785-2.142-4.785-4.784
		s2.143-4.785,4.785-4.785C121.301,185.443,127.74,179.003,127.74,171.088z M113.384,165.656c2.998,0,5.436,2.438,5.436,5.436
		c0,2.998-2.438,5.437-5.436,5.437c-2.997,0-5.436-2.438-5.436-5.437C107.949,168.095,110.387,165.656,113.384,165.656z"/>
	<path fill="#231F20" d="M93.385,113.098c5.746,0,10.42-4.675,10.42-10.42s-4.674-10.42-10.42-10.42s-10.42,4.675-10.42,10.42
		S87.639,113.098,93.385,113.098z"/>
	<path fill="#231F20" d="M133.385,113.098c5.745,0,10.42-4.675,10.42-10.42s-4.675-10.42-10.42-10.42s-10.42,4.675-10.42,10.42
		S127.64,113.098,133.385,113.098z"/>
	<path fill="#231F20" d="M-10.582-5.88v241.418H234.94V-5.88H-10.582z M162.555,217.144c0,1.381-1.119,2.5-2.5,2.5H66.714
		c-1.381,0-2.5-1.119-2.5-2.5V73.602c0-1.381,1.119-2.5,2.5-2.5h93.341c1.381,0,2.5,1.119,2.5,2.5V217.144z"/>
	<path fill="#231F20" d="M69.214,214.644h88.341V76.102H69.214V214.644z M133.385,87.257c8.503,0,15.42,6.917,15.42,15.42
		s-6.917,15.42-15.42,15.42s-15.42-6.917-15.42-15.42S124.882,87.257,133.385,87.257z M146.943,171.092
		c0,18.505-15.055,33.56-33.559,33.56c-18.504,0-33.558-15.055-33.558-33.56c0-18.504,15.054-33.558,33.558-33.558
		C131.889,137.534,146.943,152.588,146.943,171.092z M93.385,87.257c8.502,0,15.42,6.917,15.42,15.42s-6.917,15.42-15.42,15.42
		s-15.42-6.917-15.42-15.42S84.882,87.257,93.385,87.257z"/>
</g>
</svg>
