<?xml version="1.0" encoding="utf-8"?>
<!-- Generator: Adobe Illustrator 19.0.1, SVG Export Plug-In . SVG Version: 6.00 Build 0)  -->
<svg version="1.1" id="Layer_1" xmlns="http://www.w3.org/2000/svg" xmlns:xlink="http://www.w3.org/1999/xlink" x="0px" y="0px"
	 viewBox="0 0 200 200" style="enable-background:new 0 0 200 200;" xml:space="preserve">
<style type="text/css">
	.st0{fill:#FFFFFF;}
</style>
<g>
	<path class="st0" d="M81.5,85.5c5.3,0,9.6-4.4,9.6-9.8c0-5.4-4.3-9.8-9.6-9.8c-5.3,0-9.6,4.4-9.6,9.8S76.2,85.5,81.5,85.5z"/>
	<path id="smile" class="st0" d="M100,166.8c14.5,0,26.4-12,26.4-26.8s-11.8-26.8-26.4-26.8c-14.5,0-26.4,12-26.4,26.8
		S85.5,166.8,100,166.8z M113.3,140c0-2.5,2-4.5,4.4-4.5s4.4,2,4.4,4.5c0,12.4-9.9,22.5-22.1,22.5c-2.4,0-4.4-2-4.4-4.5
		s2-4.5,4.4-4.5C107.3,153.5,113.3,147.4,113.3,140z M100,134.9c2.8,0,5,2.3,5,5.1c0,2.8-2.3,5.1-5,5.1s-5-2.3-5-5.1
		C95,137.2,97.2,134.9,100,134.9z"/>
	<path class="st0" d="M118.5,85.5c5.3,0,9.6-4.4,9.6-9.8c0-5.4-4.3-9.8-9.6-9.8s-9.6,4.4-9.6,9.8C108.9,81.1,113.2,85.5,118.5,85.5z
		"/>
	<path class="st0" d="M0,0v200h200V0C200,0,0,0,0,0z M145.4,183.3c0,1.3-1,2.3-2.3,2.3H56.9c-1.3,0-2.3-1.1-2.3-2.3V48.4
		c0-1.3,1-2.3,2.3-2.3h86.2c1.3,0,2.3,1.1,2.3,2.3V183.3L145.4,183.3z"/>
	<path class="st0" d="M59.2,180.9h81.6V50.8H59.2V180.9z M118.5,61.2c7.9,0,14.2,6.5,14.2,14.5s-6.4,14.5-14.2,14.5
		c-7.9,0-14.2-6.5-14.2-14.5C104.2,67.7,110.6,61.2,118.5,61.2z M131,140c0,17.4-13.9,31.5-31,31.5S69,157.4,69,140
		s13.9-31.5,31-31.5S131,122.6,131,140z M81.5,61.2c7.9,0,14.2,6.5,14.2,14.5s-6.4,14.5-14.2,14.5c-7.9,0-14.2-6.5-14.2-14.5
		S73.7,61.2,81.5,61.2z"/>
</g>
</svg>
